# xmcd
#
# Track frame offsets:
#   150
#   12154
#   27663
#   45839
#   57863
#   81242
#   99149
#   110771
#   126025
#   141868
#   157933
#   168573
#   183012
#   201571
#   209926
#   215173
#   229000
#   242435
#   260336
#   275845
#   284731
#
# Disc length: 4050 seconds
#
# Revision: 0
# Processed by: cddbd v1.5.1PL0 Copyright (c) Steve Scherf et al.
# Submitted via: Media_Universe 3.0
#
DISCID=3a0fd015
DTITLE=Cledus .T.Judd  - Cledus.T.Judd #2
DYEAR=1900
DGENRE=Country
TTITLE0=Butt Scootin' Doggie
TTITLE1=Any Gal Of Mine
TTITLE2=Mamma's Boy
TTITLE3=More Beaver
TTITLE4=Motel California
TTITLE5=My Cellmate Thinks I'm Sexy
TTITLE6=Refried Beans
TTITLE7=Where The Grass Don't Grow
TTITLE8=CB Lingo Dictionary
TTITLE9=Breath
TTITLE10=Lighting Mama's Farts
TTITLE11=With Legs Wide Open
TTITLE12=Shania I'm Broke
TTITLE13=Diahrrhea
TTITLE14=Who Let Them Cows Out
TTITLE15=How Do You Milk A Cow
TTITLE16=Every Light In The House Is Blown
TTITLE17=Please Take The Girl
TTITLE18=Any Gal Of Mine
TTITLE19=Fishin' Problem
TTITLE20=Hey Girls This Is Earl
EXTD=
EXTT0=
EXTT1=
EXTT2=
EXTT3=
EXTT4=
EXTT5=
EXTT6=
EXTT7=
EXTT8=
EXTT9=
EXTT10=
EXTT11=
EXTT12=
EXTT13=
EXTT14=
EXTT15=
EXTT16=
EXTT17=
EXTT18=
EXTT19=
EXTT20=
PLAYORDER=
